{"title":"ALIENS-1986 IN H.264 BY WINKER","uid":5166745,"size":1047689999,"categoryP":"video","categoryS":"movies","magnet":"?xt=urn:btih:ba48f67b86d723bab6d6638cb05f9d98828dac24&amp;dn=ALIENS-1986+IN+H.264+BY+WINKER&amp;tr=udp%3A%2F%2Ftracker.openbittorrent.com%3A80&amp;tr=udp%3A%2F%2Fopen.demonii.com%3A1337&amp;tr=udp%3A%2F%2Ftracker.coppersurfer.tk%3A6969&amp;tr=udp%3A%2F%2Fexodus.desync.com%3A6969","seeders":0,"leechers":0,"uploader":"alanwatson","files":-1,"time":1258449921,"description":" &lt;a href=&quot;http://www.imdb.com/title/tt0090605/&quot; rel=&quot;nofollow&quot; target=&quot;_NEW&quot;&gt;http://www.imdb.com/title/tt0090605/&lt;/a&gt;\n\n\nIn this action-packed sequel to Alien, Sigourney Weaver returns as Ripley, the only survivor from mankind's first encounter with the monstrous Alien. Her account of the Alien and the fate of her crew are received with skepticism, until the mysterious disappearance of colonists on LV-426 lead her to join a team of high-tech colonial marines sent in to investigate. Personally supervised by director James Cameron, this special edition includes scenes eliminated prior to the film's 1986 release which broaden the narrative scope and enrich the emotional impact of the film.\n\nFormat : MPEG-4\nFormat profile : Base Media / Version 2\nCodec ID : mp42\nFile size : 999 MiB\nDuration : 2h 28mn\nOverall bit rate : 943 Kbps\nEncoded date : UTC 2009-11-16 11:07:55\nTagged date : UTC 2009-11-16 18:54:10\nWriting application : HandBrake 0.9.3 2008112300\n\nVideo\nID : 1\nFormat : AVC\nFormat/Info : Advanced Video Codec\nFormat profile : &lt;a class=&quot;__cf_email__&quot; href=&quot;/cdn-cgi/l/email-protection&quot; data-cfemail=&quot;efa28e8681afa3dbc1df&quot;&gt;[email&amp;#160;protected]&lt;/a&gt;&lt;script cf-hash='f9e31' type=&quot;text/javascript&quot;&gt;\n/* &lt;![CDATA[ */!function(){try{var t=&quot;currentScript&quot;in document?document.currentScript:function(){for(var t=document.getElementsByTagName(&quot;script&quot;),e=t.length;e--;)if(t[e].getAttribute(&quot;cf-hash&quot;))return t[e]}();if(t&amp;&amp;t.previousSibling){var e,r,n,i,c=t.previousSibling,a=c.getAttribute(&quot;data-cfemail&quot;);if(a){for(e=&quot;&quot;,r=parseInt(a.substr(0,2),16),n=2;a.length-n;n+=2)i=parseInt(a.substr(n,2),16)^r,e+=String.fromCharCode(i);e=document.createTextNode(e),c.parentNode.replaceChild(e,c)}}}catch(u){}}();/* ]]&gt; */&lt;/script&gt;\nFormat settings, CABAC : Yes\nFormat settings, ReFrames : 3 frames\nCodec ID : avc1\nCodec ID/Info : Advanced Video Coding\nDuration : 2h 28mn\nBit rate mode : Variable\nBit rate : 780 Kbps\nWidth : 714 pixels\nHeight : 554 pixels\nDisplay aspect ratio : 16:9\nFrame rate mode : Variable\nFrame rate : 25.000 fps\nMinimum frame rate : 12.500 fps\nMaximum frame rate : 86.486 fps\nResolution : 24 bits\nColorimetry : 4:2:0\nScan type : Progressive\nBits/(Pixel*Frame) : 0.079\nStream size : 826 MiB (83%)\nWriting library : x264 core 65\n\n\nAudio\nID : 2\nFormat : AAC\nFormat/Info : Advanced Audio Codec\nFormat version : Version 4\nFormat profile : LC\nFormat settings, SBR : No\nCodec ID : 40\nDuration : 2h 28mn\nBit rate mode : Variable\nBit rate : 160 Kbps\nMaximum bit rate : 236 Kbps\nChannel(s) : 2 channels\nChannel positions : L R\nSampling rate : 48.0 KHz\nResolution : 16 bits\nStream size : 169 MiB (17%)\nLanguage : English\nEncoded date : UTC 2009-11-16 11:07:55\nTagged date : UTC 2009-11-16 18:54:05 ","torrent":{"xt":"urn:btih:ba48f67b86d723bab6d6638cb05f9d98828dac24","amp;dn":"ALIENS-1986+IN+H.264+BY+WINKER","amp;tr":["udp%3A%2F%2Ftracker.openbittorrent.com%3A80","udp%3A%2F%2Fopen.demonii.com%3A1337","udp%3A%2F%2Ftracker.coppersurfer.tk%3A6969","udp%3A%2F%2Fexodus.desync.com%3A6969"],"infoHash":"ba48f67b86d723bab6d6638cb05f9d98828dac24","infoHashBuffer":{"type":"Buffer","data":[186,72,246,123,134,215,35,186,182,214,99,140,176,95,157,152,130,141,172,36]},"announce":[],"urlList":[]}}